<svg width="18" height="17" viewBox="0 0 18 17" fill="none" xmlns="http://www.w3.org/2000/svg">
<g id="search_black_24dp 2">
<path id="Vector" d="M14.0551 11.9451L13.9085 11.7979H13.7801C14.4163 10.7786 14.7076 9.5239 14.487 8.20748L14.4869 8.20673C14.1141 6.00294 12.2802 4.24867 10.0587 3.97891C6.71299 3.5681 3.89404 6.38458 4.30498 9.72922C4.57481 11.9501 6.33041 13.7829 8.53516 14.1554L8.53592 14.1556C9.85314 14.376 11.1086 14.0848 12.1286 13.4488V13.5767L12.2751 13.7232L15.3131 16.7594C15.8014 17.2474 16.5968 17.2474 17.0851 16.7594C17.5735 16.2713 17.5736 15.4762 17.0855 14.988C17.0853 14.9878 17.0852 14.9877 17.0851 14.9876L14.0551 11.9451ZM9.41191 11.7979C7.90788 11.7979 6.69522 10.5855 6.69522 9.08311C6.69522 7.58067 7.90788 6.3683 9.41191 6.3683C10.9159 6.3683 12.1286 7.58067 12.1286 9.08311C12.1286 10.5855 10.9159 11.7979 9.41191 11.7979Z" fill="white" stroke="#151515"/>
</g>
</svg>
